<svg id="Layer_1" data-name="Layer 1" xmlns="http://www.w3.org/2000/svg" viewBox="0 0 817.09 991.99"><defs><style>.cls-1{fill:none;stroke:#000;stroke-linecap:round;stroke-linejoin:round;stroke-width:44px;}</style></defs><polyline class="cls-1" points="322.11 561.96 172.49 290.32 385.57 172.96 535.18 444.61"/><path class="cls-1" d="M547.76,517.69c-131,72.16-186.55,226.81-133.58,357.36a28.93,28.93,0,0,0,40.75,14.33L911.51,637.9a28.91,28.91,0,0,0,9.67-42.1C839.17,481.25,678.78,445.52,547.76,517.69Z" transform="translate(-131.45 -36.8)"/><rect class="cls-1" x="151.58" y="163.8" width="463.98" height="111.56" transform="translate(694.04 190.07) rotate(151.16)"/><path class="cls-1" d="M708,746.8h81.45a0,0,0,0,1,0,0V978.4a39.88,39.88,0,0,1-39.88,39.88h-1.69A39.88,39.88,0,0,1,708,978.4V746.8a0,0,0,0,1,0,0Z" transform="translate(-464.33 433.9) rotate(-28.84)"/></svg>